<svg width="512" height="512" viewBox="0 0 512 512" fill="none" xmlns="http://www.w3.org/2000/svg">
<path d="M0 85.3333C0 38.205 38.205 0 85.3333 0H426.667C473.795 0 512 38.205 512 85.3333V426.667C512 473.795 473.795 512 426.667 512H85.3333C38.205 512 0 473.795 0 426.667V85.3333Z" fill="url(#paint0_linear_373_755)"/>
<path d="M85.3333 42.6667H426.667V-42.6667H85.3333V42.6667ZM469.333 85.3333V426.667H554.667V85.3333H469.333ZM426.667 469.333H85.3333V554.667H426.667V469.333ZM42.6667 426.667V85.3333H-42.6667V426.667H42.6667ZM85.3333 469.333C61.7692 469.333 42.6667 450.231 42.6667 426.667H-42.6667C-42.6667 497.359 14.6409 554.667 85.3333 554.667V469.333ZM469.333 426.667C469.333 450.231 450.231 469.333 426.667 469.333V554.667C497.359 554.667 554.667 497.359 554.667 426.667H469.333ZM426.667 42.6667C450.231 42.6667 469.333 61.7692 469.333 85.3333H554.667C554.667 14.6409 497.359 -42.6667 426.667 -42.6667V42.6667ZM85.3333 -42.6667C14.6409 -42.6667 -42.6667 14.6409 -42.6667 85.3333H42.6667C42.6667 61.7692 61.7692 42.6667 85.3333 42.6667V-42.6667Z" fill="#15C285"/>
<defs>
<linearGradient id="paint0_linear_373_755" x1="256" y1="0" x2="256" y2="512" gradientUnits="userSpaceOnUse">
<stop stop-color="#DAEFAA"/>
<stop offset="1" stop-color="#15C285"/>
</linearGradient>
</defs>
</svg>
